<svg id="Layer_1" data-name="Layer 1" xmlns="http://www.w3.org/2000/svg" viewBox="0 0 357.68 358.45"><defs><style>.cls-1{fill:#fff;stroke:#231f20;stroke-miterlimit:10;stroke-width:2px;}.cls-10,.cls-11,.cls-2,.cls-3,.cls-4,.cls-5,.cls-6,.cls-7,.cls-8,.cls-9{font-size:48px;font-family:HelveticaNeue-Medium, Helvetica Neue;font-weight:500;}.cls-2{fill:#7186c3;}.cls-3{fill:#f5b19d;}.cls-4{fill:#d5add1;}.cls-5{fill:#8acda7;}.cls-6{fill:#feed54;}.cls-7{fill:#f79e82;}.cls-8{fill:#f179af;}.cls-9{fill:#46a5dc;}.cls-10{fill:#f3c0d9;}.cls-11{fill:#9a57a3;}</style></defs><rect class="cls-1" x="16.2" y="17.33" width="108.53" height="108.53"/><rect class="cls-1" x="124.73" y="17.33" width="108.53" height="108.53"/><rect class="cls-1" x="233.26" y="17.33" width="108.53" height="108.53"/><rect class="cls-1" x="16.2" y="125.86" width="108.53" height="108.53"/><rect class="cls-1" x="124.73" y="125.86" width="108.53" height="108.53"/><rect class="cls-1" x="233.26" y="125.86" width="108.53" height="108.53"/><rect class="cls-1" x="16.2" y="234.39" width="108.53" height="108.53"/><rect class="cls-1" x="124.73" y="234.39" width="108.53" height="108.53"/><rect class="cls-1" x="233.26" y="234.39" width="108.53" height="108.53"/><text class="cls-2" transform="translate(32.94 90.75)">P</text><text class="cls-3" transform="translate(141.43 90.75)">T</text><text class="cls-4" transform="translate(76.9 90.75)">A</text><text class="cls-5" transform="translate(139.6 199.76)">C</text><text class="cls-6" transform="translate(185.43 200.57)">H</text><text class="cls-7" transform="translate(248.47 200.57)">W</text><text class="cls-8" transform="translate(139.6 308.22)">O</text><text class="cls-9" transform="translate(187.08 308.22)">R</text><text class="cls-10" transform="translate(248.47 308.22)">D</text><text class="cls-11" transform="translate(292.7 308.41)">S</text><path class="cls-1" d="M341.79,125.86,233.26,17.33"/><path class="cls-1" d="M124.73,234.39Q70.46,180.14,16.2,125.86"/><path class="cls-1" d="M124.73,342.92,16.2,234.39"/></svg>