<svg id="Layer_1" data-name="Layer 1" xmlns="http://www.w3.org/2000/svg" viewBox="0 0 357.68 358.45"><defs><style>.cls-1{fill:#7186c3;}.cls-1,.cls-10,.cls-11,.cls-2,.cls-3,.cls-4,.cls-5,.cls-6,.cls-7,.cls-8,.cls-9{stroke:#231f20;stroke-miterlimit:10;stroke-width:2px;}.cls-2{fill:#d5add1;}.cls-3{fill:#fff;}.cls-4{fill:#8acda7;}.cls-5{fill:#feed54;}.cls-6{fill:#f79e82;}.cls-7{fill:#46a5dc;}.cls-8{fill:#f3c0d9;}.cls-9{fill:#9a57a3;}.cls-10{fill:#f5b19d;}.cls-11{fill:#f179af;}</style></defs><rect class="cls-1" x="16.2" y="17.33" width="108.53" height="108.53"/><rect class="cls-2" x="124.73" y="17.33" width="108.53" height="108.53"/><rect class="cls-3" x="233.25" y="17.34" width="108.53" height="108.53"/><rect class="cls-4" x="16.2" y="125.86" width="108.53" height="108.53"/><rect class="cls-5" x="124.73" y="125.86" width="108.53" height="108.53"/><rect class="cls-6" x="233.26" y="125.86" width="108.53" height="108.53"/><rect class="cls-7" x="16.2" y="234.39" width="108.53" height="108.53"/><rect class="cls-8" x="124.73" y="234.39" width="108.53" height="108.53"/><rect class="cls-9" x="233.26" y="234.39" width="108.53" height="108.53"/><path class="cls-3" d="M341.79,125.86,233.26,17.33"/><path class="cls-3" d="M124.73,234.39Q70.46,180.14,16.2,125.86"/><path class="cls-3" d="M124.73,342.92,16.2,234.39"/><polygon class="cls-10" points="341.73 17.59 233.31 17.69 341.63 126.02 341.73 17.59"/><polygon class="cls-3" points="124.67 125.92 16.25 126.02 124.57 234.34 124.67 125.92"/><polygon class="cls-11" points="16.45 342.87 124.88 342.77 16.55 234.45 16.45 342.87"/></svg>