<svg id="Layer_1" data-name="Layer 1" xmlns="http://www.w3.org/2000/svg" viewBox="0 0 217.06 217.06"><defs><style>.cls-1{fill:#7186c3;}.cls-1,.cls-2,.cls-3,.cls-4,.cls-5{stroke:#231f20;stroke-miterlimit:10;stroke-width:2px;}.cls-2{fill:#fff;}.cls-3{fill:#feed54;}.cls-4{fill:#d5add1;}.cls-5{fill:#8acda7;}</style></defs><path class="cls-1" d="M31,0H108a.57.57,0,0,1,.57.57V108a.57.57,0,0,1-.57.57H.57A.57.57,0,0,1,0,108V31A31,31,0,0,1,31,0Z"/><path class="cls-2" d="M217.06,31.12v77.41H108.53V0h77.41A31.12,31.12,0,0,1,217.06,31.12Z"/><path class="cls-2" d="M-.15,108.53H108.38a0,0,0,0,1,0,0V217.06a0,0,0,0,1,0,0H30.77A30.92,30.92,0,0,1-.15,186.14V108.53a0,0,0,0,1,0,0Z"/><path class="cls-3" d="M109,108.53H216.58a.48.48,0,0,1,.48.48v77a31,31,0,0,1-31,31H109a.48.48,0,0,1-.48-.48V109a.48.48,0,0,1,.48-.48Z"/><path class="cls-4" d="M185.75.08,110.83.15a1,1,0,0,0-.71,1.7L215.06,106.78a1,1,0,0,0,1.7-.7l.07-74.92A31.06,31.06,0,0,0,185.75.08Z"/><path class="cls-5" d="M31.11,217l75.16-.07a.92.92,0,0,0,.65-1.56L1.71,110.14a.92.92,0,0,0-1.56.65L.08,186A31,31,0,0,0,31.11,217Z"/></svg>